<?xml version="1.0" encoding="utf-8"?>
<!-- Generator: Adobe Illustrator 23.0.2, SVG Export Plug-In . SVG Version: 6.00 Build 0)  -->
<svg version="1.1" id="Layer_1" xmlns="http://www.w3.org/2000/svg" xmlns:xlink="http://www.w3.org/1999/xlink" x="0px" y="0px"
	 viewBox="0 0 54 54" style="enable-background:new 0 0 54 54;" xml:space="preserve">
<style type="text/css">
	.st0{fill:none;stroke:#294166;stroke-width:4;}
	.st1{enable-background:new    ;}
	.st2{fill:#231F20;}
	.st3{fill:#294166;}
</style>
<title>logo-mobile</title>
<g id="Page-1">
	<g id="logo-mobile">
		<rect id="Rectangle-6" x="2" y="2" class="st0" width="50" height="50"/>
		<g>
			<g class="st1">
				<path class="st2" d="M28.9,17.8v0.5c-0.5,0-0.9,0.1-1.2,0.2c-0.3,0.1-0.5,0.3-0.6,0.6C27,19.4,27,19.9,27,20.5V33
					c0,0.6,0.1,1.1,0.2,1.4c0.1,0.3,0.3,0.5,0.6,0.6s0.7,0.2,1.2,0.2v0.5c-0.4,0-1-0.1-1.7-0.1s-1.4,0-2,0c-0.8,0-1.5,0-2.1,0
					c-0.7,0-1.2,0-1.6,0.1v-0.5c0.6,0,1-0.1,1.3-0.2c0.3-0.1,0.5-0.3,0.6-0.6s0.2-0.8,0.2-1.4V19.3h0.2l-6.2,16.4h-0.4l-6.6-16.3
					v12.5c0,0.8,0.1,1.4,0.2,1.9c0.1,0.4,0.3,0.8,0.7,1c0.3,0.2,0.9,0.3,1.6,0.4v0.5c-0.3,0-0.7-0.1-1.2-0.1s-1,0-1.4,0
					s-0.8,0-1.2,0s-0.8,0-1,0.1v-0.5c0.6-0.1,1-0.2,1.2-0.4c0.3-0.2,0.5-0.5,0.6-0.9s0.1-1,0.1-1.7V20.5c0-0.6,0-1.1-0.1-1.4
					s-0.3-0.5-0.6-0.6s-0.7-0.2-1.2-0.2v-0.5c0.3,0,0.6,0,1,0.1s0.8,0,1.2,0c0.6,0,1.2,0,1.8,0s1.1,0,1.6-0.1l5.4,13.5l-0.6,0.5
					l5.3-13.9c0.3,0,0.5,0,0.8,0s0.5,0,0.8,0c0.7,0,1.4,0,2,0C27.9,17.8,28.5,17.8,28.9,17.8z"/>
			</g>
		</g>
		<g>
			<g class="st1">
				<path class="st3" d="M37.5,17.5c1.7,0,3.2,0.4,4.5,1.1s2.3,1.8,3,3.1c0.7,1.4,1.1,3,1.1,4.9s-0.4,3.5-1.1,4.9
					c-0.7,1.4-1.7,2.5-3,3.3S39.1,36,37.4,36c-1.7,0-3.2-0.4-4.5-1.1c-1.3-0.7-2.3-1.8-3-3.1c-0.7-1.4-1.1-3-1.1-4.9
					s0.4-3.5,1.1-4.9s1.8-2.5,3-3.3C34.3,17.9,35.8,17.5,37.5,17.5z M37.4,17.9c-1,0-1.9,0.4-2.6,1.1c-0.7,0.8-1.3,1.8-1.7,3.1
					c-0.4,1.3-0.6,2.9-0.6,4.6c0,1.8,0.2,3.3,0.7,4.6s1.1,2.3,1.8,3c0.8,0.7,1.6,1.1,2.6,1.1s1.9-0.4,2.6-1.1
					c0.7-0.8,1.3-1.8,1.7-3.1c0.4-1.3,0.6-2.9,0.6-4.6c0-1.8-0.2-3.3-0.7-4.7c-0.5-1.3-1.1-2.3-1.8-3C39.1,18.3,38.3,17.9,37.4,17.9
					z"/>
			</g>
		</g>
	</g>
</g>
</svg>
