<?xml version="1.0" encoding="utf-8"?>
<!-- Generator: Adobe Illustrator 23.0.2, SVG Export Plug-In . SVG Version: 6.00 Build 0)  -->
<svg version="1.1" id="Layer_1" xmlns="http://www.w3.org/2000/svg" xmlns:xlink="http://www.w3.org/1999/xlink" x="0px" y="0px"
	 viewBox="0 0 240 64" style="enable-background:new 0 0 240 64;" xml:space="preserve">
<style type="text/css">
	.st0{fill:#294166;}
</style>
<title>logo</title>
<g id="Page-1">
</g>
<g>
	<g>
		<path d="M49,13.8v1c-1.1,0-1.9,0.2-2.4,0.4s-0.9,0.6-1.1,1.2c-0.2,0.6-0.3,1.5-0.3,2.7v25c0,1.2,0.1,2.1,0.3,2.7
			c0.2,0.6,0.5,1,1.1,1.2c0.5,0.2,1.3,0.3,2.4,0.4v1c-0.9-0.1-2.1-0.1-3.6-0.1c-1.4,0-2.9,0-4.4,0c-1.6,0-3.1,0-4.5,0
			s-2.6,0.1-3.4,0.1v-1c1.1-0.1,2-0.2,2.6-0.4s1-0.6,1.2-1.2c0.2-0.6,0.3-1.5,0.3-2.7V16.9h0.4L25,49.6h-0.8L10.6,17.1v24.2
			c0,1.8,0.1,3.3,0.3,4.3s0.6,1.7,1.3,2.1c0.7,0.4,1.8,0.7,3.3,0.9v1c-0.6-0.1-1.5-0.1-2.5-0.1s-2,0-2.9,0c-0.8,0-1.6,0-2.4,0
			s-1.5,0.1-2,0.1v-1c1.1-0.2,1.9-0.5,2.4-0.9s0.9-1.1,1.1-2c0.2-0.9,0.3-2.2,0.3-3.8V19.2c0-1.2-0.1-2.2-0.3-2.7
			c-0.2-0.6-0.6-1-1.1-1.2c-0.6-0.2-1.4-0.3-2.4-0.4v-1c0.5,0,1.2,0.1,2,0.1c0.8,0,1.6,0,2.3,0c1.4,0,2.9,0,4.3-0.1
			c1.4,0,2.6-0.1,3.7-0.1l10.6,25.6l-1.3,1.2L37.5,14c0.6,0,1.2,0,1.8,0s1.2,0,1.8,0c1.5,0,2.9,0,4.4-0.1C46.8,13.9,48,13.9,49,13.8
			z"/>
		<path d="M64.9,22.8c3,0,5.3,0.9,7,2.6s2.5,4.6,2.5,8.6H57.7l-0.1-1H68c0-1.6-0.1-3.2-0.3-4.6c-0.2-1.4-0.6-2.5-1.1-3.4
			c-0.5-0.8-1.2-1.3-2-1.3c-1.2,0-2.2,0.7-3,2.2s-1.3,3.9-1.5,7.4l0.2,0.3c0,0.4-0.1,0.8-0.1,1.3c0,0.4,0,0.9,0,1.4
			c0,2.3,0.3,4.2,1,5.6c0.7,1.4,1.5,2.5,2.5,3.2c1,0.7,2,1,3.1,1c0.7,0,1.4-0.1,2.2-0.3c0.8-0.2,1.5-0.6,2.3-1.2
			c0.8-0.6,1.5-1.4,2.2-2.5l0.9,0.3c-0.4,1.3-1,2.5-1.9,3.7s-2,2.2-3.3,3s-3,1.2-4.8,1.2c-2.3,0-4.3-0.5-6.1-1.5
			c-1.7-1-3.1-2.5-4.1-4.4c-1-2-1.5-4.5-1.5-7.6s0.5-5.7,1.6-7.8s2.5-3.6,4.4-4.7C60.3,23.3,62.5,22.8,64.9,22.8z"/>
		<path d="M89.2,22.8c1.5,0,2.8,0.2,3.9,0.7s2,1.3,2.6,2.4l-0.6,0.6c-0.4-0.8-1-1.4-1.7-1.7c-0.7-0.4-1.5-0.5-2.3-0.5
			c-1.7,0-3.1,1-4.1,3s-1.5,5.1-1.5,9.3c0,2.9,0.2,5.1,0.6,6.8s0.9,2.9,1.7,3.7c0.7,0.7,1.6,1.1,2.5,1.1c1.1,0,2.2-0.5,3.1-1.4
			s1.4-2.1,1.5-3.7l0.3,1.8c-0.5,1.8-1.3,3.1-2.4,4.1c-1.1,0.9-2.6,1.4-4.4,1.4c-2,0-3.8-0.5-5.3-1.5c-1.6-1-2.8-2.5-3.7-4.5
			c-0.9-2-1.3-4.7-1.3-7.9c0-3.1,0.5-5.6,1.5-7.6s2.3-3.5,4-4.5C85.1,23.3,87.1,22.8,89.2,22.8z M102.1,10.1V44
			c0,1.5,0.2,2.6,0.7,3.4c0.5,0.7,1.3,1.1,2.5,1.1v1.1c-1-0.1-2.1-0.2-3.1-0.2c-1.4,0-2.7,0.1-4,0.2c-1.2,0.1-2.4,0.3-3.4,0.6V16.1
			c0-1.5-0.2-2.6-0.7-3.4c-0.5-0.7-1.3-1.1-2.5-1.1v-1.1c1.1,0.1,2.1,0.2,3.1,0.2c1.4,0,2.7-0.1,3.9-0.2
			C99.9,10.5,101,10.3,102.1,10.1z"/>
		<path d="M117.9,22.9v21.9c0,1.4,0.2,2.4,0.7,2.9s1.3,0.8,2.5,0.8v1.1c-0.6,0-1.6-0.1-2.8-0.1s-2.5-0.1-3.9-0.1c-1.3,0-2.6,0-4,0.1
			c-1.3,0.1-2.4,0.1-3,0.1v-1.1c1.2,0,2-0.3,2.5-0.8s0.7-1.5,0.7-2.9V29c0-1.5-0.2-2.6-0.7-3.4c-0.5-0.7-1.3-1.1-2.5-1.1v-1.1
			c1.1,0.1,2.1,0.2,3.1,0.2c1.4,0,2.7-0.1,4-0.2C115.7,23.3,116.9,23.2,117.9,22.9z M114,10.5c1.4,0,2.5,0.3,3.4,1
			c0.8,0.7,1.2,1.6,1.2,2.8s-0.4,2.2-1.2,2.8c-0.8,0.7-1.9,1-3.4,1s-2.5-0.3-3.4-1c-0.8-0.7-1.2-1.6-1.2-2.8s0.4-2.2,1.2-2.8
			C111.4,10.8,112.6,10.5,114,10.5z"/>
		<path class="st0" d="M142.1,13.1c3.6,0,6.7,0.7,9.4,2.2c2.7,1.4,4.7,3.5,6.2,6.2s2.2,6,2.2,9.9c0,3.8-0.8,7.1-2.3,9.9
			s-3.6,5-6.3,6.6s-5.8,2.4-9.3,2.4c-3.6,0-6.7-0.7-9.4-2.2c-2.7-1.4-4.8-3.5-6.2-6.3c-1.5-2.7-2.2-6-2.2-9.8s0.8-7.1,2.3-9.9
			s3.6-5,6.3-6.6S138.6,13.1,142.1,13.1z M141.9,14c-1.9,0-3.5,0.8-4.9,2.3s-2.5,3.6-3.2,6.3c-0.8,2.7-1.1,5.7-1.1,9.2
			c0,3.6,0.4,6.7,1.3,9.3c0.9,2.6,2,4.7,3.5,6.1c1.5,1.4,3.1,2.1,4.9,2.1c1.9,0,3.5-0.8,4.9-2.3s2.5-3.6,3.2-6.3
			c0.8-2.7,1.1-5.7,1.1-9.2c0-3.6-0.4-6.7-1.3-9.3s-2-4.6-3.5-6.1C145.3,14.8,143.7,14,141.9,14z"/>
		<path class="st0" d="M173.6,22.9v30.8c0,1.6,0.4,2.6,1.2,3.2s1.9,0.8,3.3,0.8v1.1c-0.9,0-2.1-0.1-3.6-0.1s-3.2-0.1-4.9-0.1
			c-1.2,0-2.5,0-3.7,0.1s-2.1,0.1-2.7,0.1v-1.1c1.1,0,1.9-0.2,2.3-0.7c0.5-0.5,0.7-1.4,0.7-2.7V29c0-1.5-0.2-2.6-0.7-3.4
			c-0.5-0.7-1.3-1.1-2.5-1.1v-1.1c1.1,0.1,2.1,0.2,3.1,0.2c1.4,0,2.7-0.1,3.9-0.2C171.4,23.3,172.5,23.2,173.6,22.9z M181.4,22.8
			c1.7,0,3.2,0.5,4.6,1.4c1.3,0.9,2.4,2.3,3.2,4.2s1.2,4.2,1.2,7c0,2.5-0.3,4.6-0.8,6.5c-0.6,1.8-1.3,3.4-2.4,4.7
			c-1,1.3-2.3,2.2-3.7,2.8s-3,1-4.8,1c-1.3,0-2.5-0.2-3.6-0.7s-1.9-1.1-2.5-1.9l0.5-0.7c0.3,0.6,0.8,1.1,1.4,1.4
			c0.6,0.3,1.3,0.5,2.1,0.5c1.5,0,2.7-0.5,3.6-1.5c0.9-1,1.5-2.5,1.9-4.3c0.4-1.9,0.6-4.1,0.6-6.7c0-2.9-0.2-5.2-0.6-6.8
			c-0.4-1.6-0.9-2.8-1.5-3.5s-1.4-1.1-2.3-1.1c-1.2,0-2.3,0.5-3.3,1.4s-1.6,2.3-1.7,4l-0.3-1.8c0.6-1.9,1.6-3.4,3.1-4.4
			C177.7,23.3,179.5,22.8,181.4,22.8z"/>
		<path class="st0" d="M203.8,15.2v8.3h6v1h-6v20.4c0,1,0.2,1.7,0.6,2.1c0.4,0.4,0.9,0.6,1.7,0.6c0.6,0,1.2-0.2,1.8-0.7
			s1.1-1.2,1.6-2.3l0.9,0.5c-0.5,1.5-1.4,2.8-2.4,3.7c-1.1,1-2.6,1.5-4.5,1.5c-1.1,0-2.1-0.1-2.9-0.4s-1.5-0.7-2.1-1.3
			c-0.7-0.7-1.2-1.7-1.5-2.7c-0.2-1.1-0.4-2.5-0.4-4.3v-17h-4.2v-1h4.2v-6.7c1.4,0,2.7-0.1,3.9-0.4
			C201.6,16.2,202.8,15.8,203.8,15.2z"/>
		<path class="st0" d="M224.3,22.8c2.5,0,4.6,0.5,6.5,1.4s3.3,2.4,4.3,4.4s1.6,4.7,1.6,8s-0.5,6-1.6,8c-1,2-2.5,3.5-4.3,4.4
			s-4,1.4-6.5,1.4c-2.4,0-4.5-0.5-6.4-1.4s-3.3-2.4-4.4-4.4c-1.1-2-1.6-4.7-1.6-8s0.5-6,1.6-8s2.5-3.5,4.4-4.4
			C219.8,23.2,221.9,22.8,224.3,22.8z M224.3,23.8c-1.3,0-2.5,1-3.4,3s-1.4,5.3-1.4,9.8s0.5,7.8,1.4,9.7c0.9,2,2,3,3.4,3
			s2.5-1,3.4-3s1.3-5.2,1.3-9.7s-0.4-7.8-1.3-9.8C226.8,24.8,225.7,23.8,224.3,23.8z"/>
	</g>
</g>
</svg>
